<?xml version="1.0" encoding="UTF-8"?>
<svg width="40px" height="40px" viewBox="0 0 40 40" version="1.1" xmlns="http://www.w3.org/2000/svg" xmlns:xlink="http://www.w3.org/1999/xlink">
    <!-- Generator: Sketch 50.2 (55047) - http://www.bohemiancoding.com/sketch -->
    <title>icon-listing-detials-schools</title>
    <desc>Created with Sketch.</desc>
    <defs>
        <polygon id="path-1" points="0 0.116259745 29.9467624 0.116259745 29.9467624 12.62886 0 12.62886"></polygon>
        <polygon id="path-3" points="0 39.8 29.9468456 39.8 29.9468456 0.0434 0 0.0434"></polygon>
    </defs>
    <g id="Page-1" stroke="none" stroke-width="1" fill="none" fill-rule="evenodd">
        <g transform="translate(5.000000, 0.000000)">
            <polygon id="Fill-1" fill="#FFFFFF" points="25.9971745 39.55152 3.94938926 39.55152 3.94938926 18.50512 14.9881812 11.05872 25.9971745 18.50512"></polygon>
            <g id="Group-30" transform="translate(0.000000, 0.156600)">
                <path d="M4.35209396,38.99492 L25.5945101,38.99492 L25.5945101,18.55992 L14.9877987,11.38592 L4.35209396,18.56032 L4.35209396,38.99492 Z M25.9971946,39.79492 L3.9494094,39.79492 C3.72712752,39.79492 3.54672483,39.61572 3.54672483,39.39492 L3.54672483,18.34852 C3.54672483,18.21572 3.6127651,18.09192 3.72310067,18.01752 L14.7618926,10.57132 C14.8988054,10.47912 15.078,10.47892 15.2149128,10.57152 L26.223906,18.01772 C26.3340403,18.09232 26.3998792,18.21592 26.3998792,18.34852 L26.3998792,39.39492 C26.3998792,39.61572 26.2194765,39.79492 25.9971946,39.79492 Z" id="Fill-2" fill="#0E1944"></path>
                <path d="M14.5621611,8.8457 L0.567261745,18.2645 C0.396120805,18.3797 0.35061745,18.6109 0.465785235,18.7817 L1.46544966,20.2631 C1.58142282,20.4351 1.81638926,20.4805 1.9889396,20.3643 L14.7596779,11.7535 C14.8871275,11.6675 15.0546443,11.6675 15.182094,11.7535 L27.948604,20.3613 C28.120349,20.4771 28.3543087,20.4327 28.4708859,20.2621 L29.4794094,18.7861 C29.5959866,18.6155 29.5512886,18.3833 29.3795436,18.2673 L15.4061879,8.8461 C15.1514899,8.6743 14.8170604,8.6743 14.5621611,8.8457" id="Fill-4" fill="#FFFFFF"></path>
                <g id="Group-8" transform="translate(0.000000, 8.200000)">
                    <mask id="mask-2" fill="white">
                        <use xlink:href="#path-1"></use>
                    </mask>
                    <g id="Clip-7"></g>
                    <path d="M0.815033557,10.38086 L1.78489933,11.81826 L14.5336913,3.22246 C14.7990604,3.04346 15.1427517,3.04326 15.4081208,3.22266 L28.1526846,11.81546 L29.1312081,10.38346 L15.1802013,0.97706 C15.0610067,0.89666 14.9067785,0.89666 14.7879866,0.97666 L0.815033557,10.38086 Z M1.77946309,12.62886 C1.7295302,12.62886 1.67919463,12.62406 1.6290604,12.61446 C1.42389262,12.57486 1.24711409,12.45806 1.13073826,12.28566 L0.131275168,10.80426 C-0.106510067,10.45166 -0.0122818792,9.97126 0.341275168,9.73326 L14.3361745,0.31466 L14.3361745,0.31446 C14.7304027,0.04986 15.239396,0.05026 15.6324161,0.31526 L29.6055705,9.73626 C29.9609396,9.97586 30.0537584,10.45786 29.8125503,10.81066 L28.8042282,12.28666 C28.6872483,12.45766 28.5104698,12.57306 28.3061074,12.61186 C28.1019463,12.65086 27.8945638,12.60846 27.7224161,12.49226 L14.9710067,3.89446 L2.21496644,12.49526 C2.08449664,12.58326 1.93389262,12.62886 1.77946309,12.62886 Z" id="Fill-6" fill="#0E1944" mask="url(#mask-2)"></path>
                </g>
                <path d="M18.7797181,20.27266 C18.7797181,22.36086 17.075557,24.05386 14.9733423,24.05386 C12.8709262,24.05386 11.1665638,22.36086 11.1665638,20.27266 C11.1665638,18.18446 12.8709262,16.49166 14.9733423,16.49166 C17.075557,16.49166 18.7797181,18.18446 18.7797181,20.27266" id="Fill-9" fill="#FFFFFF"></path>
                <path d="M14.973302,16.8916 C13.0963893,16.8916 11.5694094,18.4084 11.5694094,20.2726 C11.5694094,22.1372 13.0963893,23.654 14.973302,23.654 C16.8500134,23.654 18.3769933,22.1372 18.3769933,20.2726 C18.3769933,18.4084 16.8500134,16.8916 14.973302,16.8916 M14.973302,24.454 C12.6524295,24.454 10.7640403,22.5782 10.7640403,20.2726 C10.7640403,17.9672 12.6524295,16.0916 14.973302,16.0916 C17.2941745,16.0916 19.1823624,17.9672 19.1823624,20.2726 C19.1823624,22.5782 17.2941745,24.454 14.973302,24.454" id="Fill-11" fill="#0E1944"></path>
                <path d="M19.4447114,39.4 L10.5016913,39.4 L10.5016913,33.89 C10.5016913,31.4372 12.5036376,29.4484 14.973302,29.4484 C17.4427651,29.4484 19.4447114,31.4372 19.4447114,33.89 L19.4447114,39.4 Z" id="Fill-13" fill="#FFEBDE"></path>
                <path d="M10.9043758,39 L19.0420268,39 L19.0420268,33.89 C19.0420268,31.6616 17.2168591,29.8484 14.973302,29.8484 C12.7295436,29.8484 10.9043758,31.6616 10.9043758,33.89 L10.9043758,39 Z M19.4447114,39.8 L10.5016913,39.8 C10.2794094,39.8 10.0990067,39.6208 10.0990067,39.4 L10.0990067,33.89 C10.0990067,31.2204 12.2855839,29.0484 14.973302,29.0484 C17.6610201,29.0484 19.847396,31.2204 19.847396,33.89 L19.847396,39.4 C19.847396,39.6208 19.6669933,39.8 19.4447114,39.8 Z" id="Fill-15" fill="#0E1944"></path>
                <path d="M14.8912953,20.47266 L14.8912953,18.30366" id="Fill-17" fill="#FFFFFF"></path>
                <path d="M14.8912953,20.87266 C14.6690134,20.87266 14.4886107,20.69346 14.4886107,20.47266 L14.4886107,18.30366 C14.4886107,18.08286 14.6690134,17.90366 14.8912953,17.90366 C15.1135772,17.90366 15.2939799,18.08286 15.2939799,18.30366 L15.2939799,20.47266 C15.2939799,20.69346 15.1135772,20.87266 14.8912953,20.87266" id="Fill-19" fill="#0E1944"></path>
                <path d="M14.8912953,20.47266 L16.9063289,21.43706" id="Fill-21" fill="#FFFFFF"></path>
                <path d="M16.9061074,21.8371 C16.8473154,21.8371 16.7879195,21.8245 16.7315436,21.7975 L14.7165101,20.8329 C14.5161745,20.7371 14.4320134,20.4981 14.5284564,20.2991 C14.6251007,20.0997 14.865906,20.0165 15.0660403,20.1123 L17.0810738,21.0767 C17.2814094,21.1727 17.3655705,21.4117 17.2691275,21.6107 C17.1996644,21.7537 17.0557047,21.8371 16.9061074,21.8371" id="Fill-23" fill="#0E1944"></path>
                <path d="M15.1441611,8.79336 C14.9218792,8.79336 14.7414765,8.61416 14.7414765,8.39336 L14.7414765,1.04336 C14.7414765,0.82256 14.9218792,0.64336 15.1441611,0.64336 C15.366443,0.64336 15.5468456,0.82256 15.5468456,1.04336 L15.5468456,8.39336 C15.5468456,8.61416 15.366443,8.79336 15.1441611,8.79336" id="Fill-25" fill="#0E1944"></path>
                <mask id="mask-4" fill="white">
                    <use xlink:href="#path-3"></use>
                </mask>
                <g id="Clip-28"></g>
                <polygon id="Fill-27" fill="#E0E0F0" mask="url(#mask-4)" points="15.1441611 4.5184 22.1410067 4.5184 22.1410067 0.4434 15.1441611 0.4434"></polygon>
                <path d="M15.5468456,4.1184 L21.7383221,4.1184 L21.7383221,0.8434 L15.5468456,0.8434 L15.5468456,4.1184 Z M22.1410067,4.9184 L15.1441611,4.9184 C14.9216779,4.9184 14.7414765,4.7392 14.7414765,4.5184 L14.7414765,0.4434 C14.7414765,0.2224 14.9216779,0.0434 15.1441611,0.0434 L22.1410067,0.0434 C22.3632886,0.0434 22.5436913,0.2224 22.5436913,0.4434 L22.5436913,4.5184 C22.5436913,4.7392 22.3632886,4.9184 22.1410067,4.9184 Z" id="Fill-29" fill="#0E1944" mask="url(#mask-4)"></path>
            </g>
        </g>
    </g>
</svg>