<?xml version="1.0" encoding="UTF-8"?>
<svg width="40px" height="40px" viewBox="0 0 40 40" version="1.1" xmlns="http://www.w3.org/2000/svg" xmlns:xlink="http://www.w3.org/1999/xlink">
    <!-- Generator: Sketch 50.2 (55047) - http://www.bohemiancoding.com/sketch -->
    <title>icon-listing-details-neighborhood</title>
    <desc>Created with Sketch.</desc>
    <defs>
        <polygon id="path-1" points="0 0.177066667 36.8392556 0.177066667 36.8392556 17.025641 0 17.025641"></polygon>
        <polygon id="path-3" points="0.0821882072 0.0254358974 24.4237732 0.0254358974 24.4237732 10.6346462 0.0821882072 10.6346462"></polygon>
        <polygon id="path-5" points="0 39.7948718 36.8392556 39.7948718 36.8392556 0.0254358974 0 0.0254358974"></polygon>
    </defs>
    <g id="Page-1" stroke="none" stroke-width="1" fill="none" fill-rule="evenodd">
        <g transform="translate(2.000000, 0.000000)">
            <polygon id="Fill-1" fill="#E0E0F0" points="30.5038072 23.5363077 5.44699611 23.5363077 0.411296111 39.5644103 36.4281239 39.5644103"></polygon>
            <g id="Group-27" transform="translate(0.000000, 0.179692)">
                <g id="Group-4" transform="translate(0.000000, 22.769231)">
                    <mask id="mask-2" fill="white">
                        <use xlink:href="#path-1"></use>
                    </mask>
                    <g id="Clip-3"></g>
                    <path d="M0.970653889,16.2051692 L35.8384261,16.2051692 L30.2173039,0.997579487 L5.74858722,0.997579487 L0.970653889,16.2051692 Z M36.428165,17.0256821 L0.410926111,17.0256821 C0.280192778,17.0256821 0.157065,16.9633231 0.0795705556,16.8582974 C0.00228166667,16.7530667 -0.0203294444,16.6172718 0.0187261111,16.4925538 L5.05442611,0.464861538 C5.10828167,0.293579487 5.26697056,0.177066667 5.44662611,0.177066667 L30.5038483,0.177066667 C30.6761039,0.177066667 30.830065,0.284348718 30.8894706,0.445579487 L36.8137872,16.4734769 C36.8604483,16.5992205 36.8423594,16.7397333 36.7654817,16.8500923 C36.6886039,16.960041 36.5625983,17.0256821 36.428165,17.0256821 Z" id="Fill-2" fill="#0E1944" mask="url(#mask-2)"></path>
                </g>
                <path d="M19.6673706,1.78949744 L17.1719261,1.78949744 C16.8313206,1.78949744 16.5552594,2.06498462 16.5552594,2.40488205 L16.5552594,6.32467692 L20.2840372,6.32467692 L20.2840372,2.40488205 C20.2840372,2.06498462 20.0079761,1.78949744 19.6673706,1.78949744" id="Fill-5" fill="#FFFFFF"></path>
                <path d="M16.9664528,5.91450256 L19.8730083,5.91450256 L19.8730083,2.4049641 C19.8730083,2.29173333 19.7807139,2.1998359 19.6674528,2.1998359 L17.1720083,2.1998359 C17.0585417,2.1998359 16.9664528,2.29173333 16.9664528,2.4049641 L16.9664528,5.91450256 Z M20.2841194,6.73501538 L16.5553417,6.73501538 C16.3284083,6.73501538 16.1442306,6.55122051 16.1442306,6.32475897 L16.1442306,2.4049641 C16.1442306,1.83942564 16.6052917,1.37932308 17.1720083,1.37932308 L19.6674528,1.37932308 C20.2339639,1.37932308 20.6952306,1.83942564 20.6952306,2.4049641 L20.6952306,6.32475897 C20.6952306,6.55122051 20.5110528,6.73501538 20.2841194,6.73501538 Z" id="Fill-7" fill="#0E1944"></path>
                <path d="M27.1940339,13.3514051 C27.1344228,12.7955077 27.0277394,12.2498667 26.8598006,11.7165333 C26.5144672,10.6205333 25.954945,9.64186667 25.2196728,8.76104615 C24.3762783,7.75058462 23.3489117,6.98340513 22.145795,6.44966154 C21.0900617,5.98114872 19.9829394,5.72104615 18.8301839,5.6617641 C18.2281117,5.63078974 17.6264506,5.66032821 17.0295172,5.74730256 C16.5345394,5.81930256 16.0484006,5.93478974 15.572745,6.09027692 C14.3679839,6.48391795 13.2949839,7.10525128 12.3699839,7.97068718 C10.6704506,9.56084103 9.73805056,11.517559 9.60320611,13.8416615 C9.57052278,14.4072 9.59313389,14.9741744 9.68028944,15.5374564 C9.802595,16.3274051 10.0215117,17.0906872 10.3865783,17.7994051 C10.8314006,18.6621744 11.2932839,19.5185846 11.7960728,20.3487385 C12.4160283,21.3717128 13.0851117,22.3649436 13.7348728,23.3698667 C14.4917283,24.5401231 15.2167228,25.7286359 15.8597006,26.9659692 C16.9549006,29.0734564 17.7960339,31.2742769 18.3224617,33.5920205 C18.3609006,33.7622769 18.3985172,33.9329436 18.4381894,34.1112 C18.4488783,34.0972513 18.4538117,34.093559 18.4546339,34.0892513 C18.5841339,33.3834051 18.7598839,32.688841 18.9590672,31.9998154 C19.5529172,29.944841 20.4137839,28.0028923 21.4584172,26.1390974 C22.2210283,24.7782769 23.0549672,23.4613538 23.9271394,22.168841 C24.9220283,20.6947897 25.8153728,19.1647385 26.5605117,17.5493538 C26.968745,16.6640205 27.1773839,15.7313026 27.2374061,14.7641231 C27.2668006,14.2933538 27.244395,13.8217641 27.1940339,13.3514051" id="Fill-9" fill="#FFFFFF"></path>
                <path d="M18.3678072,6.06014359 C17.9425128,6.06014359 17.514135,6.09111795 17.0888406,6.15327179 C16.6246961,6.22075897 16.1574683,6.33070769 15.7005183,6.48004103 C14.5420072,6.85870769 13.5158739,7.46075897 12.6511017,8.26978462 C11.0284461,9.78855385 10.1410628,11.6712205 10.0136183,13.8652718 C9.98175722,14.4148103 10.0064239,14.9563487 10.0865906,15.4749128 C10.2123906,16.2876308 10.4300739,16.9867077 10.7521794,17.6115282 C11.2742906,18.6242462 11.7176739,19.4265026 12.1479017,20.1366564 C12.5896406,20.8652718 13.0663239,21.5940923 13.527385,22.2987077 C13.712385,22.5813744 13.8971794,22.8638359 14.080535,23.1475282 C14.9771683,24.5341949 15.658585,25.6876308 16.224685,26.7770667 C17.1751739,28.6061949 17.9162017,30.4759385 18.4337906,32.3506051 C18.4749017,32.1992205 18.5180683,32.0443487 18.5639072,31.8859897 C19.1355572,29.9085538 19.9651794,27.9629128 21.0996406,25.9387077 C21.7983239,24.6919385 22.6117072,23.3838359 23.5862461,21.9397333 C24.6417739,20.3756308 25.4925683,18.8833231 26.1871406,17.3778872 C26.5573461,16.5750154 26.7666017,15.7118359 26.827035,14.7387077 C26.8523183,14.3329641 26.8387517,13.8935795 26.7853072,13.3951179 C26.725285,12.836759 26.6214794,12.328041 26.4675183,11.8396308 C26.1511683,10.8351179 25.6251517,9.88763077 24.9036517,9.02363077 C24.1108239,8.07368205 23.1268294,7.33398974 21.9788017,6.82465641 C20.9806239,6.38157949 19.9139961,6.12824615 18.8089294,6.07142564 C18.6625739,6.06404103 18.5153961,6.06014359 18.3678072,6.06014359 M18.4381072,34.5245538 C18.4085072,34.5245538 18.3784961,34.5212718 18.348485,34.5147077 C18.1922628,34.4808615 18.0718072,34.3563487 18.0370683,34.2004513 L17.9213406,33.6822974 C17.4241017,31.4921436 16.607635,29.296041 15.4947572,27.1549128 C14.940785,26.0888615 14.2719072,24.956759 13.3894572,23.5922462 C13.2071294,23.3099897 13.0229517,23.028759 12.8389794,22.7473231 C12.3742183,22.036759 11.8934239,21.3021949 11.444285,20.5610667 C11.0041906,19.8345026 10.5521739,19.0166564 10.0212239,17.9871179 C9.65780167,17.2820923 9.41339611,16.5013744 9.27402944,15.6002462 C9.18502389,15.0246564 9.15747944,14.4250667 9.19262944,13.8178872 C9.33281833,11.4066051 10.3069461,9.33850256 12.0887017,7.67122051 C13.0418628,6.77952821 14.1709794,6.11634872 15.4448072,5.70034872 C15.9461572,5.53645128 16.4594294,5.41563077 16.9700294,5.34116923 C17.5963572,5.25050256 18.2292628,5.22055385 18.8512739,5.25214359 C20.0576794,5.31388718 21.2223572,5.59101538 22.3128294,6.07491282 C23.5772017,6.63573333 24.6613017,7.45111795 25.5355294,8.49850256 C26.3258906,9.44516923 26.9032961,10.4866051 27.2521239,11.5936821 C27.4223239,12.1339897 27.5370239,12.6950154 27.6028017,13.3077333 C27.6611794,13.8525538 27.6757739,14.3374769 27.6476128,14.7895795 C27.5808072,15.8654769 27.3475017,16.8244513 26.9339239,17.7208615 C26.2208517,19.2669128 25.348885,20.7969641 24.2682794,22.3979897 C23.306485,23.8232205 22.5048183,25.1124513 21.8170294,26.3393231 C20.7136072,28.3081436 19.9078294,30.1969641 19.3540628,32.1136821 C19.1349406,32.8710154 18.9731683,33.5413744 18.8592906,34.1631179 C18.846135,34.2338872 18.8085183,34.3093744 18.7618572,34.3641436 C18.6835406,34.4673231 18.5639072,34.5245538 18.4381072,34.5245538" id="Fill-11" fill="#0E1944"></path>
                <polyline id="Fill-13" fill="#FFFFFF" points="9.61060611 14.573559 9.61060611 9.02155897 18.4316117 2.7752 27.2287728 9.02155897 27.2287728 14.573559"></polyline>
                <path d="M27.2287728,14.9838154 C27.0018394,14.9838154 26.8176617,14.8000205 26.8176617,14.573559 L26.8176617,9.23304615 L18.4312006,3.27858462 L10.0217172,9.23345641 L10.0217172,14.573559 C10.0217172,14.8000205 9.837745,14.9838154 9.61060611,14.9838154 C9.38367278,14.9838154 9.199495,14.8000205 9.199495,14.573559 L9.199495,9.02155897 C9.199495,8.88843077 9.26403944,8.76391795 9.37277833,8.68699487 L18.1937839,2.44084103 C18.3362339,2.33950769 18.5274006,2.33950769 18.6698506,2.44104615 L27.4670117,8.6872 C27.575545,8.76412308 27.6398839,8.8886359 27.6398839,9.02155897 L27.6398839,14.573559 C27.6398839,14.8000205 27.4557061,14.9838154 27.2287728,14.9838154" id="Fill-15" fill="#0E1944"></path>
                <path d="M18.2029928,0.505251282 L6.66002056,8.30996923 L8.24793722,10.2244308 L18.4171817,3.2552 L28.5814928,10.2211487 L30.1794817,8.31325128 L18.6525428,0.50545641 C18.5168761,0.413764103 18.338865,0.413558974 18.2029928,0.505251282" id="Fill-17" fill="#FFEBDE"></path>
                <g id="Group-21" transform="translate(6.166667, 0.000000)">
                    <mask id="mask-4" fill="white">
                        <use xlink:href="#path-3"></use>
                    </mask>
                    <g id="Clip-20"></g>
                    <path d="M1.09850944,8.39628718 L2.15835389,9.67403077 L12.0178261,2.91710769 C12.158015,2.82090256 12.343015,2.82090256 12.4832039,2.91710769 L22.3391817,9.67177436 L23.4058094,8.39813333 L12.2609983,0.849005128 L1.09850944,8.39628718 Z M2.08147611,10.6346462 C1.96287056,10.6346462 1.84549833,10.5835692 1.76450944,10.4861333 L0.176592778,8.57146667 C0.102592778,8.48244103 0.0699094444,8.36633846 0.0863538889,8.25187692 C0.102592778,8.13741538 0.166726111,8.03505641 0.262720556,7.97044103 L11.8056928,0.165723077 L11.8058983,0.165517949 C12.0825761,-0.0215589744 12.4400372,-0.0211487179 12.716715,0.165928205 L24.2436539,7.97372308 C24.3396483,8.03895385 24.4037817,8.14172308 24.419815,8.25638974 C24.4358483,8.37126154 24.4027539,8.4873641 24.3281372,8.57638974 L22.7301483,10.4842872 C22.5944817,10.6467487 22.3568594,10.6793641 22.1821372,10.5593641 L12.250515,3.7528 L2.31395944,10.5626462 C2.24304278,10.6112615 2.16205389,10.6346462 2.08147611,10.6346462 Z" id="Fill-19" fill="#0E1944" mask="url(#mask-4)"></path>
                </g>
                <mask id="mask-6" fill="white">
                    <use xlink:href="#path-5"></use>
                </mask>
                <g id="Clip-23"></g>
                <polygon id="Fill-22" fill="#E0E0F0" mask="url(#mask-6)" points="16.6571944 34.8892308 20.1822667 34.8892308 20.1822667 33.3333333 16.6571944 33.3333333"></polygon>
                <path d="M20.5851556,17.2796923 L16.2543056,17.2796923 C16.0281944,17.2796923 15.8431944,17.0950769 15.8431944,16.8694359 L15.8431944,9.54738462 C15.8431944,9.32174359 16.0281944,9.13712821 16.2543056,9.13712821 L20.5851556,9.13712821 C20.8112667,9.13712821 20.9962667,9.32174359 20.9962667,9.54738462 L20.9962667,16.8694359 C20.9962667,17.0950769 20.8112667,17.2796923 20.5851556,17.2796923" id="Fill-24" fill="#FFEBDE" mask="url(#mask-6)"></path>
                <path d="M16.2542233,9.54732308 L16.2542233,16.8693744 L20.58384,16.8693744 L20.5850733,9.54732308 L16.2542233,9.54732308 Z M20.5850733,16.8693744 L20.5850733,17.2796308 L20.5850733,16.8693744 Z M20.5850733,17.6898872 L16.2542233,17.6898872 C15.8007678,17.6898872 15.4320011,17.3218872 15.4320011,16.8693744 L15.4320011,9.54732308 C15.4320011,9.09481026 15.8007678,8.72681026 16.2542233,8.72681026 L20.5850733,8.72681026 C21.0385289,8.72681026 21.4072956,9.09481026 21.4072956,9.54732308 L21.4072956,16.8693744 C21.4072956,17.3218872 21.0385289,17.6898872 20.5850733,17.6898872 Z" id="Fill-25" fill="#0E1944" mask="url(#mask-6)"></path>
                <path d="M20.2930817,33.7316103 L16.5460094,33.7316103 C16.3190761,33.7316103 16.1348983,33.5478154 16.1348983,33.3213538 C16.1348983,33.0948923 16.3190761,32.9110974 16.5460094,32.9110974 L20.2930817,32.9110974 C20.520015,32.9110974 20.7041928,33.0948923 20.7041928,33.3213538 C20.7041928,33.5478154 20.520015,33.7316103 20.2930817,33.7316103" id="Fill-26" fill="#0E1944" mask="url(#mask-6)"></path>
            </g>
        </g>
    </g>
</svg>