<?xml version="1.0" encoding="UTF-8"?>
<svg width="60px" height="60px" viewBox="0 0 60 60" version="1.1" xmlns="http://www.w3.org/2000/svg" xmlns:xlink="http://www.w3.org/1999/xlink">
    <!-- Generator: sketchtool 49.3 (51167) - http://www.bohemiancoding.com/sketch -->
    <title>5915D8D9-EABC-4002-AF20-BC4A635EB38F</title>
    <desc>Created with sketchtool.</desc>
    <defs>
        <rect id="path-1" x="0" y="0" width="60" height="60"></rect>
    </defs>
    <g id="Page-1" stroke="none" stroke-width="1" fill="none" fill-rule="evenodd">
        <g id="Linkedin-partnership-landing-page-visual-enhancement-V1" transform="translate(-762.000000, -2612.000000)">
            <g id="icon-transparency" transform="translate(762.000000, 2612.000000)">
                <mask id="mask-2" fill="white">
                    <use xlink:href="#path-1"></use>
                </mask>
                <g id="Mask"></g>
                <g id="Page-1" mask="url(#mask-2)">
                    <path d="M7.8496,42.6115 C-1.7844,32.9785 -1.7834,17.3585 7.8496,7.7255 C17.4836,-1.9085 33.1026,-1.9085 42.7366,7.7255 C52.3706,17.3585 52.3706,32.9785 42.7366,42.6115 C33.1026,52.2455 17.4836,52.2455 7.8496,42.6115" id="Fill-1" fill="#FFFFFF"></path>
                    <path d="M7.8496,42.6115 C-1.7844,32.9785 -1.7834,17.3585 7.8496,7.7255 C17.4836,-1.9085 33.1026,-1.9085 42.7366,7.7255 C52.3706,17.3585 52.3706,32.9785 42.7366,42.6115 C33.1026,52.2455 17.4836,52.2455 7.8496,42.6115 Z" id="Stroke-3" stroke="#0E1944" stroke-linecap="round" stroke-linejoin="round"></path>
                    <path d="M34.9316,11.8329 C34.8316,11.4049 34.4506,11.1029 34.0106,11.1029 L4.9036,11.1029 C1.4646,16.0449 0.0376,21.9599 0.6306,27.7109 L38.6406,27.7109 L34.9316,11.8329 Z" id="Fill-5" fill="#E0E0F0"></path>
                    <path d="M34.9316,11.8329 C34.8316,11.4049 34.4506,11.1029 34.0106,11.1029 L4.9036,11.1029 C1.4646,16.0449 0.0376,21.9599 0.6306,27.7109 L38.6406,27.7109 L34.9316,11.8329 Z" id="Stroke-7" stroke="#0E1944" stroke-linecap="round" stroke-linejoin="round"></path>
                    <path d="M12.6064,46.3229 C20.6574,51.1619 30.8714,50.9989 38.7754,45.8339 L38.7754,26.8239 L25.7844,16.2899 L12.6064,26.8239 L12.6064,46.3229 Z" id="Fill-9" fill="#FFFFFF"></path>
                    <path d="M12.6064,46.3229 C20.6574,51.1619 30.8714,50.9989 38.7754,45.8339 L38.7754,26.8239 L25.7844,16.2899 L12.6064,26.8239 L12.6064,46.3229 Z" id="Stroke-11" stroke="#0E1944" stroke-linecap="round" stroke-linejoin="round"></path>
                    <path d="M24.8096,15.4513 L8.3776,26.6733 C8.0566,26.8923 7.9726,27.3303 8.1896,27.6533 L10.0736,30.4643 C10.2926,30.7923 10.7376,30.8773 11.0636,30.6543 L25.1826,20.9693 C25.4226,20.8043 25.7396,20.8033 25.9806,20.9663 L40.3056,30.6483 C40.6296,30.8663 41.0696,30.7823 41.2886,30.4583 L43.1906,27.6573 C43.4116,27.3323 43.3266,26.8913 43.0006,26.6713 L26.4036,15.4473 C25.9216,15.1213 25.2896,15.1233 24.8096,15.4513" id="Fill-13" fill="#FFFFFF"></path>
                    <path d="M24.8096,15.4513 L8.3776,26.6733 C8.0566,26.8923 7.9726,27.3303 8.1896,27.6533 L10.0736,30.4643 C10.2926,30.7923 10.7376,30.8773 11.0636,30.6543 L25.1826,20.9693 C25.4226,20.8043 25.7396,20.8033 25.9806,20.9663 L40.3056,30.6483 C40.6296,30.8663 41.0696,30.7823 41.2886,30.4583 L43.1906,27.6573 C43.4116,27.3323 43.3266,26.8913 43.0006,26.6713 L26.4036,15.4473 C25.9216,15.1213 25.2896,15.1233 24.8096,15.4513 Z" id="Stroke-15" stroke="#0E1944" stroke-linecap="round" stroke-linejoin="round"></path>
                    <path d="M31.7744,48.9796 L31.7744,35.2436 C31.7744,34.7506 31.3754,34.3516 30.8814,34.3516 L20.5004,34.3516 C20.0064,34.3516 19.6074,34.7506 19.6074,35.2436 L19.6074,49.1626 C23.6074,50.1136 27.7974,50.0506 31.7744,48.9796" id="Fill-17" fill="#FFEBDE"></path>
                    <path d="M31.7744,48.9796 L31.7744,35.2436 C31.7744,34.7506 31.3754,34.3516 30.8814,34.3516 L20.5004,34.3516 C20.0064,34.3516 19.6074,34.7506 19.6074,35.2436 L19.6074,49.1626 C23.6074,50.1136 27.7974,50.0506 31.7744,48.9796 Z" id="Stroke-19" stroke="#0E1944" stroke-linecap="round" stroke-linejoin="round"></path>
                    <path d="M42.7402,42.7399 L46.5892,46.5889" id="Stroke-21" stroke="#0E1944" stroke-linecap="round" stroke-linejoin="round"></path>
                    <path d="M59.1357,56.4962 L56.4957,59.1352 C56.0107,59.6212 55.2227,59.6212 54.7377,59.1352 L44.1997,48.5982 C43.7137,48.1122 43.7137,47.3252 44.1997,46.8392 L46.8387,44.2002 C47.3247,43.7142 48.1127,43.7142 48.5987,44.2002 L59.1357,54.7372 C59.6207,55.2232 59.6207,56.0102 59.1357,56.4962" id="Fill-23" fill="#E0E0F0"></path>
                    <path d="M59.1357,56.4962 L56.4957,59.1352 C56.0107,59.6212 55.2227,59.6212 54.7377,59.1352 L44.1997,48.5982 C43.7137,48.1122 43.7137,47.3252 44.1997,46.8392 L46.8387,44.2002 C47.3247,43.7142 48.1127,43.7142 48.5987,44.2002 L59.1357,54.7372 C59.6207,55.2232 59.6207,56.0102 59.1357,56.4962 Z" id="Stroke-25" stroke="#0E1944" stroke-linecap="round" stroke-linejoin="round"></path>
                </g>
            </g>
        </g>
    </g>
</svg>